<svg xmlns="http://www.w3.org/2000/svg" viewBox="0 0 100.87 141.73"><defs><style>.cls-1{fill:#7c8cad;}.cls-2{fill:#343d53;}</style></defs><g id="Layer_2" data-name="Layer 2"><g id="Layer_1-2" data-name="Layer 1"><path class="cls-1" d="M18.28,35.43H83.94c9.35,0,16.93-7.93,16.93-17.71h0C100.87,7.93,93.29,0,83.94,0H3.48A2.13,2.13,0,0,0,1.35,2.14c0,16.1,0,6.18,0,15.58h0C1.34,27.5,8.93,35.43,18.28,35.43Z"/><path class="cls-2" d="M0,139.61V2.13A2.24,2.24,0,0,1,2.35,0h11C27.58,0,39.1,9.87,39.1,22V139.59a2.26,2.26,0,0,1-2.37,2.14H2.35A2.24,2.24,0,0,1,0,139.61Z"/><path class="cls-2" d="M83.83,106.3H18.17c-9.35,0-16.94,7.93-16.94,17.72h0c0,9.78,7.59,17.71,16.94,17.71H83.83"/><rect class="cls-1" x="65.33" y="106.3" width="35.43" height="35.43" rx="17.72"/><path class="cls-2" d="M1.38,53.15H46A17.72,17.72,0,0,1,63.74,70.87v0A17.71,17.71,0,0,1,46,88.58H33.27A31.89,31.89,0,0,1,1.38,56.69V53.15a0,0,0,0,1,0,0Z"/></g></g></svg>